<?xml version="1.0" encoding="utf-8"?>
<!-- Generator: Adobe Illustrator 24.0.3, SVG Export Plug-In . SVG Version: 6.00 Build 0)  -->
<svg version="1.1" id="Layer_1" focusable="false" xmlns="http://www.w3.org/2000/svg" xmlns:xlink="http://www.w3.org/1999/xlink"
	 x="0px" y="0px" viewBox="0 0 448 512" style="enable-background:new 0 0 448 512;" xml:space="preserve">
<style type="text/css">
	.st0{opacity:0.4;fill:#FFFFFF;enable-background:new    ;}
	.st1{fill:#FFFFFF;}
</style>
<g>
	<path class="st0" d="M352,128c0,70.7-57.3,128-128,128S96,198.7,96,128S153.3,0,224,0S352,57.3,352,128z"/>
	<path class="st1" d="M313.6,288h-16.7c-46.3,21.3-99.5,21.3-145.8,0h-16.7C60.2,288,0,348.2,0,422.4V464c0,26.5,21.5,48,48,48l0,0
		h352c26.5,0,48-21.5,48-48l0,0v-41.6C448,348.2,387.8,288,313.6,288z"/>
</g>
</svg>
